<?xml version="1.0"?>
<svg version="1.1" xmlns="http://www.w3.org/2000/svg" width="400px" height="200px" style="border: dashed 2px #aaa"><path fill="#141313" d="M83.62,110.8l0,6.6l-12.12,0l0,11.4l10.74,0l1.38-4.92l5.4,0l0,12.12l-31.32,0l0-5.1l4.5-1.8l0-28.2l-4.5-1.8l0-5.1l13.8-0.3l16.8,0l0,11.58l-5.4,0l-1.5-4.38l-9.9,0l0,9.9l12.12,0z M98.5906,136l0-5.1l4.5-1.8l0-28.2l-4.5-1.8l0-5.1l13.8-0.3l4.56,0c9.84,0,15.6,4.08,15.6,12.24c0,5.64-2.7,9.3-6.78,11.34c0.66,0.78,1.56,1.92,2.52,3.9l4.02,8.22l4.08,1.5l0,5.1l-11.1,0l-5.04-11.1c-2.04-4.56-2.58-5.52-5.76-5.52l-2.1,0l0,9.72l4.32,1.8l0,5.1l-18.12,0z M112.3906,113.08l3.42,0c4.74,0,7.5-2.28,7.5-6.3c0-3.42-2.28-5.88-6-5.88l-4.92,0l0,12.18z M151.0012,122.98l0.9,5.04s2.4,1.26,5.88,1.26c3.84,0,7.26-1.68,7.26-4.86c0-7.02-20.28-3.9-20.28-18.72c0-8.28,6.54-12.72,15.24-12.72c6.78,0,13.2,2.4,13.2,2.4l-0.3,10.92l-5.52,0l-1.5-5.1s-2.7-0.9-5.28-0.9c-4.26,0-6.36,1.86-6.36,4.26c0,6.96,20.22,4.2,20.22,18.3c0,9-6.96,13.92-16.2,13.92c-6.78,0-13.38-2.28-13.38-2.28l0-11.52l6.12,0z"/><path fill="#" d=""/></svg>
